# xmcd CD database file
#
# Track frame offsets:
#	150
#	11300
#	36000
#	50950
#	83500
#	106900
#	131362
#	142687
#
# Disc length: 2232 seconds
#
# Revision: 4
# Processed by: cddbd v1.5.1PL0 Copyright (c) Steve Scherf et al.
# Submitted via: CDex 1.51
#
DISCID=5608b608
DTITLE=Ann Burton - Ballads and Burton
DYEAR=1900
DGENRE=
TTITLE0=A Lovery Way to Spend an Evening
TTITLE1=Try a Little Tenderness
TTITLE2=Bang Bang
TTITLE3=Someone to Watch over Me
TTITLE4=The Shadow of Your Smile
TTITLE5=It Never Entered My Mind
TTITLE6=That Ole Devil Called Love
TTITLE7=Here's That Rainy Day
EXTD=
EXTT0=
EXTT1=
EXTT2=
EXTT3=
EXTT4=
EXTT5=
EXTT6=
EXTT7=
PLAYORDER=
